Motion_pu04
version=1
nRows=5
nColumns=43
inDegrees=yes
endheader
time	pelvis_tilt	pelvis_list	pelvis_rotation	pelvis_tx	pelvis_ty	pelvis_tz	hip_flexion_r	hip_adduction_r	hip_rotation_r	knee_angle_r	ankle_angle_r	subtalar_angle_r	mtp_angle_r	hip_flexion_l	hip_adduction_l	hip_rotation_l	knee_angle_l	ankle_angle_l	subtalar_angle_l	mtp_angle_l	lumbar_extension	lumbar_bending	lumbar_rotation	neck_flexion	neck_lateral_bending	neck_rotation	arm_flex_r	arm_add_r	arm_rot_r	elbow_flex_r	pro_sup_r	wrist_flex_r	wrist_dev_r	hand_finger_flex_r	arm_flex_l	arm_add_l	arm_rot_l	elbow_flex_l	pro_sup_l	wrist_flex_l	wrist_dev_l	hand_finger_flex_l
      0.00250000	     -0.53606295	     -7.72549849	     90.92625620	      0.07762746	      1.74414462	      1.86094942	     86.01088394	     -3.51380322	      4.50635041	   -152.19999727	     24.15824314	      4.55024431	     13.45945742	     83.11472641	     -7.05705020	     20.22010712	   -150.33716516	     25.04213054	     30.55191465	     17.02923265	    -56.15176451	     -2.95645912	      2.28698034	     39.45603756	      2.17200164	     -8.14076077	     40.43599515	    -22.10865043	    -12.01423832	     76.48092040	    105.53205150	     -5.02240837	    -16.71966021	     -9.98393839	     55.15996595	    -21.10419085	      8.77038260	     57.48425605	    110.74165568	    -12.14844267	    -11.02376320	      0.58200127
      0.00500000	     -0.47867350	     -7.89321948	     90.89355486	      0.07757096	      1.74465855	      1.85928186	     85.83928838	     -3.52281429	      4.42822374	   -152.09120721	     24.22299135	      4.50280640	     13.58651625	     82.96800036	     -7.08762718	     20.21536865	   -150.27434236	     24.99933428	     30.50688042	     17.09559072	    -55.98592500	     -2.88293955	      2.26156445	     39.70664733	      2.09057705	     -7.99680232	     41.20766330	    -22.29108286	    -11.65984347	     76.64624305	    105.39318425	     -4.94590371	    -16.78985753	    -10.20792328	     55.71234845	    -21.13624376	      8.75314621	     57.45809992	    110.95421080	    -12.22089047	    -11.12386923	      0.72274848
      0.00750000	     -0.44557237	     -8.08375242	     90.86562439	      0.07752697	      1.74506132	      1.85756522	     85.71665345	     -3.53090350	      4.42549933	   -152.02515302	     24.19981325	      4.50507841	     13.59587390	     82.86814052	     -7.07873042	     20.21252591	   -150.20935534	     24.98371686	     30.50126254	     17.10211467	    -55.77313162	     -2.86638572	      2.28521253	     39.62592130	      2.12198010	     -7.98831933	     41.79598007	    -22.33687816	    -11.65071833	     76.96068614	    105.37417926	     -4.95145099	    -16.86010638	    -10.23454608	     56.15611209	    -21.07456787	      8.71763166	     57.63898280	    110.97330282	    -12.24355129	    -11.16397605	      0.73061070
      0.01000000	     -0.30066438	     -8.26354665	     90.84803117	      0.07752433	      1.74567088	      1.85587531	     85.52185222	     -3.47554274	      4.24377199	   -151.85950353	     24.20329333	      4.51925868	     13.70017873	     82.73019200	     -7.13880385	     20.28384505	   -150.13401108	     24.99319964	     30.38675289	     17.18072450	    -55.58870154	     -2.74890058	      2.33731490	     39.88670404	      2.11987909	     -7.87842712	     42.62562471	    -22.66005129	    -11.16033172	     77.05286500	    105.35011822	     -4.84718700	    -16.82340861	    -10.36397339	     56.83532894	    -21.13932511	      8.86199025	     57.50689039	    111.20823246	    -12.25275821	    -11.11874776	      0.85176300
      0.01250000	     -0.26366916	     -8.46015582	     90.82295087	      0.07747214	      1.74609287	      1.85406926	     85.39411567	     -3.48135589	      4.23627506	   -151.78542419	     24.18169757	      4.52302309	     13.71037765	     82.62411593	     -7.13350914	     20.27414298	   -150.07291826	     24.97516356	     30.37515736	     17.18877804	    -55.36967567	     -2.72705409	      2.36741306	     39.80545693	      2.15186900	     -7.86997423	     43.23562951	    -22.70848500	    -11.15156310	     77.36840978	    105.33532225	     -4.85738959	    -16.88814822	    -10.38736868	     57.29522602	    -21.07636427	      8.83407704	     57.68787485	    111.23001977	    -12.27635197	    -11.15187758	      0.85832263
